# xmcd
#
# Track frame offsets:
#  150
#  24302
#  49957
#  67852
#  82297
#  101445
#  117740
#  131737
#  150722
#  165232
#  192122
#  211285
#  231075
#  246559
#  269727
#  283542
#  300530
#
# Disc length: 4215 seconds
#
# Revision: 1
# Processed by: cddbd v1.5.1PL0 Copyright (c) Steve Scherf et al.
# Submitted via: Collectorz.com Music Collector 6.9
#
DISCID=f4107511
DTITLE=Various Artist - Blue Highways - Ultimate Americana Musicfest 2004
DYEAR=2004
DGENRE=Americana
TTITLE0=Rodney Crowell - Fate's Right Hand
TTITLE1=Drive-by Truckers - Marry Me
TTITLE2=Reckless Kelly - Vancouver
TTITLE3=Bobby Bare Jr. - Valentine
TTITLE4=Ben Atkins - Mabelle
TTITLE5=Elizabeth McQueen and the Firebrands - I Don't Wanna Stop
TTITLE6=Fred Eaglesmith and the Flatheaded Noodlers - I Shot Your Dog
TTITLE7=Rice, Rice, Hillman and Pedersen - Hard Times
TTITLE8=Caitlin Cary - Please Break My Heart
TTITLE9=Allison Moorer - All Aboard
TTITLE10=Chris Knight - The Jealous Kind
TTITLE11=Neil Cleary - When All Of Us Get Famous
TTITLE12=Mark Olson and the Creepdippers - Big Old Sign
TTITLE13=Phil Lee - Babylon
TTITLE14=Duane Jarvis - Coulda Shoulda Woulda
TTITLE15=Joy Lynn White - On Her Own
TTITLE16=Tish Hinojosa - Donde Voy (Where I Go)
EXTD=
EXTT0=
EXTT1=
EXTT2=
EXTT3=
EXTT4=
EXTT5=
EXTT6=
EXTT7=
EXTT8=
EXTT9=
EXTT10=
EXTT11=
EXTT12=
EXTT13=
EXTT14=
EXTT15=
EXTT16=
PLAYORDER=
